<mxfile host="Electron" modified="2024-05-28T06:46:16.861Z" agent="Mozilla/5.0 (Windows NT 10.0; Win64; x64) AppleWebKit/537.36 (KHTML, like Gecko) draw.io/24.2.5 Chrome/120.0.6099.109 Electron/28.1.0 Safari/537.36" etag="KTshuyYRXWUYxap1lzvb" version="24.2.5" type="device">
  <diagram name="Page-1" id="Zej8h0Z0xPzgIA-1vT4n">
    <mxGraphModel dx="774" dy="496" grid="0" gridSize="10" guides="1" tooltips="1" connect="1" arrows="1" fold="1" page="1" pageScale="1" pageWidth="827" pageHeight="1169" math="0" shadow="0">
      <root>
        <mxCell id="0" />
        <mxCell id="1" parent="0" />
        <mxCell id="5AJGI6_aru6JeEYRRQQo-5" style="edgeStyle=orthogonalEdgeStyle;rounded=0;orthogonalLoop=1;jettySize=auto;html=1;endArrow=diamondThin;endFill=0;endSize=24;" parent="1" source="5AJGI6_aru6JeEYRRQQo-4" target="5AJGI6_aru6JeEYRRQQo-1" edge="1">
          <mxGeometry relative="1" as="geometry" />
        </mxCell>
        <object label="Examples directory" RFexpDir="[C:\Users\Logen\MILL\RFscripts]" ScriptDir="[C:\Users\Logen\MILL\RFscripts\ForTestGallery]" id="5AJGI6_aru6JeEYRRQQo-1">
          <mxCell style="swimlane;whiteSpace=wrap;html=1;fillColor=#fff2cc;strokeColor=#d6b656;strokeWidth=3;" parent="1" vertex="1">
            <mxGeometry x="300" y="160" width="140" height="120" as="geometry">
              <mxRectangle x="300" y="160" width="140" height="30" as="alternateBounds" />
            </mxGeometry>
          </mxCell>
        </object>
        <object label="Joulupukinmaa.robot" TheScript="[C:\Users\Logen\MILL\RFscripts\ForTestGallery\Joulupukinmaa.robot]" RunTest="[@Ropota.bat C:\Users\Logen\MILL\RFscripts\ForTestGallery\Joulupukinmaa.robot]" id="5AJGI6_aru6JeEYRRQQo-4">
          <mxCell style="shape=note;whiteSpace=wrap;html=1;backgroundOutline=1;darkOpacity=0.05;fillColor=#fff2cc;strokeColor=#d6b656;strokeWidth=3;" parent="1" vertex="1">
            <mxGeometry x="83" y="328" width="131" height="100" as="geometry" />
          </mxCell>
        </object>
        <mxCell id="jEnXbLhktJ0a2tvOvnVA-1" value="Test Automation Engineer" style="shape=umlActor;verticalLabelPosition=bottom;verticalAlign=top;html=1;outlineConnect=0;strokeWidth=3;" parent="1" vertex="1">
          <mxGeometry x="141" y="126" width="30" height="60" as="geometry" />
        </mxCell>
        <mxCell id="jEnXbLhktJ0a2tvOvnVA-2" style="edgeStyle=orthogonalEdgeStyle;rounded=0;orthogonalLoop=1;jettySize=auto;html=1;entryX=0;entryY=0.875;entryDx=0;entryDy=0;entryPerimeter=0;dashed=1;" parent="1" source="jEnXbLhktJ0a2tvOvnVA-1" target="jEnXbLhktJ0a2tvOvnVA-4" edge="1">
          <mxGeometry relative="1" as="geometry">
            <Array as="points">
              <mxPoint x="33" y="156" />
              <mxPoint x="33" y="511" />
            </Array>
          </mxGeometry>
        </mxCell>
        <mxCell id="jEnXbLhktJ0a2tvOvnVA-3" value="START" style="edgeLabel;html=1;align=center;verticalAlign=middle;resizable=0;points=[];" parent="jEnXbLhktJ0a2tvOvnVA-2" vertex="1" connectable="0">
          <mxGeometry x="-0.0534" y="-2" relative="1" as="geometry">
            <mxPoint as="offset" />
          </mxGeometry>
        </mxCell>
        <mxCell id="jEnXbLhktJ0a2tvOvnVA-7" style="edgeStyle=orthogonalEdgeStyle;rounded=0;orthogonalLoop=1;jettySize=auto;html=1;entryX=0;entryY=0.5;entryDx=0;entryDy=0;curved=1;dashed=1;flowAnimation=1;strokeWidth=2;" parent="1" source="jEnXbLhktJ0a2tvOvnVA-4" target="jEnXbLhktJ0a2tvOvnVA-6" edge="1">
          <mxGeometry relative="1" as="geometry" />
        </mxCell>
        <mxCell id="jEnXbLhktJ0a2tvOvnVA-9" style="edgeStyle=orthogonalEdgeStyle;rounded=0;orthogonalLoop=1;jettySize=auto;html=1;exitX=0.5;exitY=0;exitDx=0;exitDy=0;curved=1;dashed=1;flowAnimation=1;" parent="1" source="jEnXbLhktJ0a2tvOvnVA-4" target="jEnXbLhktJ0a2tvOvnVA-8" edge="1">
          <mxGeometry relative="1" as="geometry">
            <Array as="points">
              <mxPoint x="468" y="311" />
              <mxPoint x="541" y="311" />
            </Array>
          </mxGeometry>
        </mxCell>
        <object label="Robot framework" RobotFrameworkCore="[C:\Users\Logen\POT\MAP\RobotFrameworkImport.mm]" id="jEnXbLhktJ0a2tvOvnVA-4">
          <mxCell style="shape=step;perimeter=stepPerimeter;whiteSpace=wrap;html=1;fixedSize=1;rounded=0;shadow=1;sketch=1;curveFitting=1;jiggle=2;fillColor=#dae8fc;strokeColor=#6c8ebf;gradientColor=#7ea6e0;" parent="1" vertex="1">
            <mxGeometry x="408" y="441" width="120" height="80" as="geometry" />
          </mxCell>
        </object>
        <mxCell id="jEnXbLhktJ0a2tvOvnVA-5" style="edgeStyle=orthogonalEdgeStyle;rounded=0;orthogonalLoop=1;jettySize=auto;html=1;exitX=0.985;exitY=0.78;exitDx=0;exitDy=0;exitPerimeter=0;curved=1;entryX=0.372;entryY=0.021;entryDx=0;entryDy=0;entryPerimeter=0;dashed=1;flowAnimation=1;strokeWidth=2;" parent="1" source="5AJGI6_aru6JeEYRRQQo-4" target="jEnXbLhktJ0a2tvOvnVA-4" edge="1">
          <mxGeometry relative="1" as="geometry">
            <mxPoint x="338" y="485" as="targetPoint" />
          </mxGeometry>
        </mxCell>
        <object label="REPORTS" LOG="[C:\Users\NN\HUT\TRAY\LOG.html]" REPORT="[C:\Users\NN\HUT\TRAY\REPORT.html]" id="jEnXbLhktJ0a2tvOvnVA-6">
          <mxCell style="shape=document;whiteSpace=wrap;html=1;boundedLbl=1;fillColor=#fff2cc;gradientColor=#ffd966;strokeColor=#d6b656;" parent="1" vertex="1">
            <mxGeometry x="637" y="369" width="120" height="80" as="geometry" />
          </mxCell>
        </object>
        <mxCell id="jEnXbLhktJ0a2tvOvnVA-8" value="Internet" style="sketch=0;outlineConnect=0;fillColor=none;dashed=0;verticalLabelPosition=bottom;verticalAlign=top;align=center;html=1;fontSize=12;fontStyle=0;aspect=fixed;shape=mxgraph.aws4.resourceIcon;resIcon=mxgraph.aws4.internet;" parent="1" vertex="1">
          <mxGeometry x="520" y="166" width="103" height="103" as="geometry" />
        </mxCell>
        <mxCell id="jEnXbLhktJ0a2tvOvnVA-10" style="edgeStyle=orthogonalEdgeStyle;rounded=0;orthogonalLoop=1;jettySize=auto;html=1;curved=1;dashed=1;flowAnimation=1;entryX=0.75;entryY=0;entryDx=0;entryDy=0;" parent="1" source="jEnXbLhktJ0a2tvOvnVA-8" target="jEnXbLhktJ0a2tvOvnVA-4" edge="1">
          <mxGeometry relative="1" as="geometry">
            <Array as="points">
              <mxPoint x="587" y="335" />
              <mxPoint x="523" y="335" />
              <mxPoint x="523" y="420" />
              <mxPoint x="498" y="420" />
            </Array>
          </mxGeometry>
        </mxCell>
        <mxCell id="bc1nRv5xRGsxPJmommEv-1" style="edgeStyle=orthogonalEdgeStyle;rounded=0;orthogonalLoop=1;jettySize=auto;html=1;entryX=0.5;entryY=0;entryDx=0;entryDy=0;entryPerimeter=0;" edge="1" parent="1" source="jEnXbLhktJ0a2tvOvnVA-1" target="5AJGI6_aru6JeEYRRQQo-4">
          <mxGeometry relative="1" as="geometry" />
        </mxCell>
        <mxCell id="bc1nRv5xRGsxPJmommEv-3" value="CREATE" style="edgeLabel;html=1;align=center;verticalAlign=middle;resizable=0;points=[];" vertex="1" connectable="0" parent="bc1nRv5xRGsxPJmommEv-1">
          <mxGeometry x="-0.3623" relative="1" as="geometry">
            <mxPoint as="offset" />
          </mxGeometry>
        </mxCell>
      </root>
    </mxGraphModel>
  </diagram>
</mxfile>
